<svg width="606" height="509" viewBox="0 0 606 509" fill="none" xmlns="http://www.w3.org/2000/svg">
<path d="M92.3 458.402H86.2V445.802H92.3C95.1 445.802 98.7 447.702 98.7 452.602C98.7 456.602 96 458.402 92.3 458.402ZM86.2 432.402H92.3C95.4 432.402 98.4 433.902 98.4 437.702C98.4 441.902 94.6 443.502 92.3 443.502H86.2V432.402ZM95.9 444.502C99.8 443.802 103.3 441.502 103.3 437.502C103.3 432.702 99.3 430.102 93.4 430.102H81V460.702H93.4C100.3 460.702 104 457.702 104 452.602C104 447.402 100.4 445.102 95.9 444.502Z" fill="#F8E0C4"/>
<path d="M130 443.002V451.502C130 456.102 127.9 458.802 121.7 458.802C116.1 458.802 113.7 456.502 113.7 452.502V430.102H108.5V451.602C108.5 457.302 113.2 461.202 121 461.202C128.8 461.202 132.2 457.402 132.2 451.602V430.102H128.8L130 443.002Z" fill="#F8E0C4"/>
<path d="M158.6 457.702L147.1 458.402H142.5V430.102H137.4V460.702H158.6V457.702Z" fill="#F8E0C4"/>
<path d="M168.2 458.402V430.102H163V460.702H184.2V457.702L172.7 458.402H168.2Z" fill="#F8E0C4"/>
<path d="M193.801 430.102H188.601V460.702H193.801V430.102Z" fill="#F8E0C4"/>
<path d="M213.7 432.002C218.9 432.002 223 436.202 223 445.502C223 454.702 218.9 458.802 213.7 458.802C208.6 458.802 204.3 454.802 204.3 445.502C204.3 436.302 208.6 432.002 213.7 432.002ZM213.7 461.202C221.9 461.202 228.3 456.002 228.3 445.502C228.3 435.102 221.9 429.602 213.7 429.602C205.7 429.602 199 435.002 199 445.502C199 456.002 205.7 461.202 213.7 461.202Z" fill="#F8E0C4"/>
<path d="M236.001 448.302V438.102L254.201 460.702H256.601V430.102H253.401L254.301 441.502V452.502L236.201 430.102H233.601V460.702H236.801L236.001 448.302Z" fill="#F8E0C4"/>
<path d="M289.4 452.202V430.102H284.2V453.002C284.2 456.402 283.4 458.802 279.8 458.802C276.2 458.802 273.1 455.402 270.7 452.002H270.5L270.6 458.202C272.3 459.802 275.6 461.202 279.2 461.202C286.2 461.202 289.4 457.002 289.4 452.202Z" fill="#F8E0C4"/>
<path d="M315.801 457.702L305.001 458.402H299.701V446.102H305.801L314.201 446.402V443.402L305.601 443.702H299.701V432.402H305.001L315.401 433.102V430.102H294.601V460.702H315.801V457.702Z" fill="#F8E0C4"/>
<path d="M365.8 430.102H361.4L356.4 449.302L353.7 456.002L345.5 430.102H341.8L333.4 455.302L324.1 430.102H318.4L330.3 460.702H333.8L342 436.602L350.5 460.702H354L365.8 430.102Z" fill="#F8E0C4"/>
<path d="M390.301 457.702L379.501 458.402H374.201V446.102H380.301L388.701 446.402V443.402L380.101 443.702H374.201V432.402H379.501L389.901 433.102V430.102H369.101V460.702H390.301V457.702Z" fill="#F8E0C4"/>
<path d="M416.5 457.702L405 458.402H400.5V430.102H395.3V460.702H416.5V457.702Z" fill="#F8E0C4"/>
<path d="M442.1 457.702L430.6 458.402H426.1V430.102H420.9V460.702H442.1V457.702Z" fill="#F8E0C4"/>
<path d="M451.7 458.402V446.102H457.8L466.2 446.402V443.402L457.6 443.702H451.7V432.402H457L467.4 433.102V430.102H446.5V460.702H467.7V457.702L457 458.402H451.7Z" fill="#F8E0C4"/>
<path d="M477.9 444.402V432.402H483.1C487.6 432.402 491 433.902 491 438.202C491 442.302 487.8 444.402 483.4 444.402H477.9ZM482.6 446.302H485.4C492.6 446.302 496.2 443.102 496.2 438.002C496.2 432.502 492.1 430.102 486.1 430.102H472.8V460.702H477.9V446.502H479.8L492.3 460.702H498.2L486.4 447.402L482.6 446.302Z" fill="#F8E0C4"/>
<path d="M518.9 430.102L514.6 443.602L512.9 446.102L504.1 430.102H498.4L508.9 448.602V460.702H514.1V448.602L524.7 430.102H518.9Z" fill="#F8E0C4"/>
<path d="M156.3 480.299L162.4 479.499H165.5V507.899H170.7V479.499H173.1L179.8 480.299V477.199H156.3V480.299Z" fill="#F8E0C4"/>
<path d="M189.4 491.499V479.499H194.6C199 479.499 202.5 480.999 202.5 485.299C202.5 489.499 199.2 491.499 194.8 491.499H189.4ZM194.1 493.399H196.9C204.1 493.399 207.6 490.299 207.6 485.099C207.6 479.599 203.5 477.199 197.6 477.199H184.3V507.899H189.4V493.599H191.3L203.7 507.899H209.6L197.8 494.599L194.1 493.399Z" fill="#F8E0C4"/>
<path d="M217.9 496.399L223.3 482.099L228.6 496.399H217.9ZM223.1 477.199L211.2 507.899H214.7L216.8 499.299L217 498.699H229.5L232.9 507.899H238.4L226.5 477.199H223.1Z" fill="#F8E0C4"/>
<path d="M251 505.599H247V479.499H251C258.8 479.499 262.5 484.799 262.5 492.599C262.5 500.499 258.9 505.599 251 505.599ZM251 477.199H241.9V507.899H251C262.3 507.899 267.8 502.099 267.8 492.699C267.8 483.299 262.3 477.199 251 477.199Z" fill="#F8E0C4"/>
<path d="M273 507.899H278.2V477.199H273V507.899Z" fill="#F8E0C4"/>
<path d="M304.6 488.599V499.599L286.4 477.199H283.9V507.899H287L286.3 495.499V485.199L304.5 507.899H306.9V477.199H303.7L304.6 488.599Z" fill="#F8E0C4"/>
<path d="M324.901 494.701L331.201 494.001H333.201V502.001C331.801 504.001 330.101 506.001 326.701 506.001C320.801 506.001 317.501 500.601 317.501 492.401C317.501 484.501 321.001 479.201 326.701 479.201C330.801 479.201 334.201 482.901 336.601 485.901H336.701V480.401C334.401 478.301 331.201 476.801 326.601 476.801C317.701 476.801 312.101 483.101 312.101 492.701C312.101 502.401 317.801 508.301 326.301 508.301C330.301 508.301 332.801 507.001 334.501 505.701L337.501 507.901H337.701V491.601H324.901V494.701Z" fill="#F8E0C4"/>
<path d="M357.3 505.599V477.199H352.2V507.899H373.4V504.899L361.9 505.599H357.3Z" fill="#F8E0C4"/>
<path d="M377.3 504.602L380.8 508.302L384.4 504.602L380.8 500.902L377.3 504.602Z" fill="#F8E0C4"/>
<path d="M394.7 505.599V477.199H389.5V507.899H410.7V504.899L399.2 505.599H394.7Z" fill="#F8E0C4"/>
<path d="M414.601 504.602L418.201 508.302L421.701 504.602L418.201 500.902L414.601 504.602Z" fill="#F8E0C4"/>
<path d="M439.2 506.001C432.8 506.001 429.7 500.401 429.7 492.401C429.7 484.401 433.2 479.201 439 479.201C443.1 479.201 446.4 482.901 448.8 485.901H449L448.9 480.401C446.7 478.301 443.4 476.801 438.9 476.801C430 476.801 424.4 482.901 424.4 492.701C424.4 502.301 429.8 508.301 438.9 508.301C443.6 508.301 447.5 506.701 449.3 504.801L449.4 499.001H449.2C446.8 502.101 443.6 506.001 439.2 506.001Z" fill="#F8E0C4"/>
<path d="M78.3 377.501C49.5 377.501 22.7 361.901 22.7 323.501C22.7 285.001 49.5 268.501 78.3 268.501C108.5 268.501 133.8 284.801 133.8 323.501C133.8 361.801 108.8 377.501 78.3 377.501ZM78.3 260.801C36.8 260.801 0 281.001 0 323.501C0 366.101 36.8 385.301 78.3 385.301C121.6 385.301 156.6 366.101 156.6 323.501C156.6 281.201 121.6 260.801 78.3 260.801Z" fill="#F8E0C4"/>
<path d="M298.4 306.4V356.2L197.3 262.5H186.8V383.5H201.3L197.6 335.5V288.8L298.4 383.5H308.4V262.5H293.9L298.4 306.4Z" fill="#F8E0C4"/>
<path d="M412.2 315.9L401.9 327.5L352.1 262.5H328.4L385.1 335.5V383.5H407.4V335.5L464.7 262.5H439.4L412.2 315.9Z" fill="#F8E0C4"/>
<path d="M547 316.8L602.5 262.5H580L542.5 311.8L498.9 262.5H474.4L530.5 326.3L473.2 383.5H496.7L535.2 331.7L580.7 383.5H605.7L547 316.8Z" fill="#F8E0C4"/>
<path d="M281.601 20.8C281.501 20.3 281.401 18.8 281.301 15.9V15.7L281.401 15.5L285.601 8H320.101L324.401 15.7V15.9C324.301 18.8 324.201 20.3 324.101 20.8C322.401 34.9 311.901 39.9 303.001 42.6L302.801 42.7L302.601 42.6C289.401 38.5 283.001 31.8 281.601 20.8ZM195.601 132C195.601 194.2 251.001 216.4 302.901 216.4C370.001 216.4 410.101 184.8 410.101 132C410.101 89.4 383.301 59.4 336.601 49.6C333.901 52.6 330.901 55.3 327.401 57.6C327.201 57.7 327.001 57.9 326.801 58C361.301 66.4 380.301 92.6 380.301 132C380.301 157.1 372.601 176.5 357.501 189.6C344.201 201.1 325.301 207.2 302.901 207.2C265.401 207.2 225.401 187.5 225.401 132C225.401 92.9 245.301 65.4 278.501 58.4C319.501 49.8 326.101 39.7 328.501 35.9C329.501 34.4 330.301 32.7 331.001 30.3C332.701 25.2 333.201 19.4 333.301 15.3L324.801 0H280.901L272.401 15.3C272.501 19.4 273.001 25.2 274.701 30.3C275.501 32.7 276.201 34.4 277.101 35.7C278.301 37.6 280.501 40.9 287.001 44.9L288.901 45.9L283.501 46.9C281.501 47.2 279.401 47.6 277.301 48C277.101 48 259.201 51.9 251.201 54.9C215.301 68.5 195.601 95.9 195.601 132Z" fill="#F8E0C4"/>
</svg>
